<?xml version="1.0" ?><!DOCTYPE svg  PUBLIC '-//W3C//DTD SVG 1.1//EN'  'http://www.w3.org/Graphics/SVG/1.1/DTD/svg11.dtd'><svg enable-background="new 0 0 100 100" height="100px" id="Layer_1" version="1.1" viewBox="0 0 100 100" width="100px" xml:space="preserve" xmlns="http://www.w3.org/2000/svg" xmlns:xlink="http://www.w3.org/1999/xlink"><path d="M76.734,7.693l-8.014,13.881C77.352,27.362,83.195,36.994,83.782,48h16.005C99.178,31.056,90.141,16.27,76.734,7.693z"/><path d="M23.169,28.771c6.232-7.875,15.865-12.942,26.664-12.942c5.558,0,10.801,1.349,15.438,3.722l8.015-13.882  c-6.995-3.723-14.976-5.84-23.452-5.84c-16.241,0-30.667,7.749-39.8,19.745L23.169,28.771z"/><path d="M48,83.777c-17.898-0.955-32.167-15.815-32.167-33.948c0-6.516,1.846-12.607,5.037-17.785l-13.126-9.19  c-5,7.784-7.911,17.037-7.911,26.976c0,26.999,21.403,48.986,48.167,49.954V83.777z"/><path d="M83.756,52C82.678,69.021,69.021,82.676,52,83.753v16.021C77.889,98.669,98.671,77.887,99.777,52H83.756z"/><rect height="16" width="4" x="28" y="50"/><rect height="32" width="4" x="36" y="34"/><rect height="24" width="4" x="44" y="42"/><rect height="16" width="4" x="52" y="50"/><rect height="24" width="4" x="59" y="42"/><rect height="32" width="4" x="67" y="34"/></svg>