<?xml version="1.0" ?><svg id="Layer_1" style="enable-background:new 0 0 100 100;" version="1.1" viewBox="0 0 100 100" xml:space="preserve" xmlns="http://www.w3.org/2000/svg" xmlns:xlink="http://www.w3.org/1999/xlink"><path d="M79.1,71.3l3.5,2l0.1-0.2c4.9-6.8,7.5-14.9,7.5-23.4c0.1-10.9-4-21.1-11.6-28.7C71,13.3,60.9,9.1,50.1,9.1  C27.8,9.1,9.6,27.2,9.6,49.5s18.1,40.4,40.4,40.4c3.9,0,7.6-0.5,11.1-1.6l0.2-0.1l-0.8-4l-0.3,0.1c-3.4,1-6.9,1.6-10.4,1.6  c-20,0-36.3-16.3-36.3-36.3c0-20,16.3-36.3,36.3-36.3s36.3,16.3,36.3,36.3c0,7.7-2.4,15.1-7,21.5L79.1,71.3z" id="XMLID_14_"/><path d="M84.2,15.8C75.1,6.7,62.9,1.6,50.1,1.6c-4.5,0-8.8,0.6-12.9,1.8l-0.2,0.1l0.7,3.7l0.3-0.1  c4-1.1,8.1-1.7,12.1-1.7c24.5,0,44.5,19.9,44.5,44.5S74.6,94.3,50.1,94.3C25.5,94.2,5.6,74.3,5.6,49.8c0-9.3,2.8-18.1,8.2-25.7  l0.2-0.2L10.7,22l-0.1,0.2c-5.7,8.1-8.8,17.7-8.8,27.7C1.8,76.4,23.4,98,49.9,98c26.6,0,48.3-21.6,48.3-48.1  C98.2,37.1,93.3,25,84.2,15.8z" id="XMLID_13_"/><path d="M74.6,37.8l-15.9-4.6c-0.2-0.1-0.5,0-0.7,0.2c-2.1,2.1-4.9,3.3-7.9,3.3c-3,0-5.8-1.2-7.9-3.3  c-0.2-0.2-0.4-0.2-0.7-0.2l-16.1,4.6c-0.3,0.1-0.5,0.4-0.5,0.8l2.5,10.9c0.1,0.4,0.4,0.6,0.8,0.5l7.2-1.6l0.2,27  c0,0.4,0.3,0.7,0.7,0.7h27.4c0.4,0,0.7-0.3,0.7-0.7l0.2-27l7.2,1.6c0.4,0.1,0.7-0.1,0.8-0.5l2.5-10.9C75.1,38.3,74.9,37.9,74.6,37.8  z" id="XMLID_12_"/><circle cx="28.3" cy="32.2" id="XMLID_11_" r="1.3"/><circle cx="73.1" cy="32.2" id="XMLID_10_" r="1.3"/><circle cx="69.4" cy="54.6" id="XMLID_9_" r="1.3"/><polygon id="XMLID_7_" points="36.9,29.6 38.8,28.8 37,28.1 36.1,26 35.3,28.1 33.5,28.8 35.4,29.6 36.2,31.5 "/><polygon id="XMLID_6_" points="65.7,28.1 64.8,26 64,28.1 62.2,28.8 64.1,29.6 64.9,31.5 65.7,29.6 67.5,28.8 "/><polygon id="XMLID_5_" points="30.4,55.4 32.2,54.6 30.4,53.9 29.5,51.8 28.7,53.9 26.9,54.6 28.8,55.4 29.6,57.3 "/></svg>