<?xml version="1.0"?>
<svg xmlns="http://www.w3.org/2000/svg" height="512px" viewBox="0 0 397.00605 397" width="512px"><path d="m110.71875 82.574219c-15.546875 0-28.144531 12.601562-28.144531 28.144531-.003907 15.542969 12.597656 28.144531 28.140625 28.144531 15.542968 0 28.144531-12.601562 28.144531-28.144531-.015625-15.535156-12.605469-28.125-28.140625-28.144531zm0 0" fill="#933EC5"/><path d="m194.855469 8.785156c-5.640625-5.613281-13.269531-8.769531-21.226563-8.78124975-.25 0-.5 0-.75.00781255l-140.078125 3.5664062c-15.972656.398437-28.824219 13.253906-29.222656 29.226563l-3.5703125 140.074218c-.1953125 8.214844 2.9765625 16.152344 8.7773435 21.976563l193.363282 193.363281c11.714843 11.714844 30.710937 11.714844 42.425781 0l143.644531-143.644531c11.714844-11.714844 11.714844-30.710938 0-42.425781zm-84.136719 150.074219c-26.589844.003906-48.144531-21.550781-48.144531-48.140625s21.554687-48.144531 48.140625-48.144531c26.589844 0 48.144531 21.554687 48.144531 48.144531-.03125 26.574219-21.566406 48.109375-48.140625 48.140625zm0 0" fill="#933EC5"/></svg>
