<?xml version="1.0" ?><svg enable-background="new 0 0 515.91 728.5" height="512" id="Layer_1" version="1.1" viewBox="0 0 512.00003 512" width="512" xml:space="preserve" xmlns="http://www.w3.org/2000/svg" xmlns:cc="http://creativecommons.org/ns#" xmlns:dc="http://purl.org/dc/elements/1.1/" xmlns:inkscape="http://www.inkscape.org/namespaces/inkscape" xmlns:rdf="http://www.w3.org/1999/02/22-rdf-syntax-ns#" xmlns:sodipodi="http://sodipodi.sourceforge.net/DTD/sodipodi-0.dtd" xmlns:svg="http://www.w3.org/2000/svg"><defs id="defs7"/><g id="g15905" transform="matrix(0.99999585,0,0,0.99999585,-1522.8511,-12992.904)"><g id="g15843" transform="matrix(0.91623872,0,0,0.91623872,218.30043,953.39342)"><path d="m 1448.1697,13375.676 c 14.1762,24.447 45.8343,32.866 70.2815,18.69 24.4471,-14.177 32.8658,-45.835 18.6895,-70.282 -14.1762,-24.447 -45.8344,-32.866 -70.2815,-18.689 -24.4471,14.176 -32.8658,45.834 -18.6895,70.281 z m 20.7559,-12.036 c -7.6698,-13.226 -3.2397,-29.79 9.9868,-37.459 13.2266,-7.67 29.8026,-3.288 37.4724,9.939 7.6698,13.227 3.2572,29.82 -9.9694,37.49 -13.2266,7.67 -29.82,3.257 -37.4898,-9.97 z" id="path15845" style="font-size:medium;font-style:normal;font-variant:normal;font-weight:normal;font-stretch:normal;text-indent:0;text-align:start;text-decoration:none;line-height:normal;letter-spacing:normal;word-spacing:normal;text-transform:none;direction:ltr;block-progression:tb;writing-mode:lr-tb;text-anchor:start;baseline-shift:baseline;color:#000000;fill:#37484a;fill-opacity:1;stroke:none;stroke-width:21.5999794;marker:none;visibility:visible;display:inline;overflow:visible;enable-background:accumulate;font-family:Sans;-inkscape-font-specification:Sans"/><path d="m 1588.5476,13353.049 c 14.1762,24.447 45.8343,32.866 70.2815,18.69 24.4471,-14.177 32.8658,-45.835 18.6895,-70.282 -14.1762,-24.447 -45.8344,-32.866 -70.2815,-18.689 -24.4471,14.176 -32.8658,45.834 -18.6895,70.281 z m 20.7559,-12.036 c -7.6698,-13.226 -3.2397,-29.79 9.9868,-37.459 13.2266,-7.67 29.8026,-3.288 37.4724,9.939 7.6698,13.227 3.2572,29.82 -9.9694,37.49 -13.2266,7.67 -29.82,3.257 -37.4898,-9.97 z" id="path15847" style="font-size:medium;font-style:normal;font-variant:normal;font-weight:normal;font-stretch:normal;text-indent:0;text-align:start;text-decoration:none;line-height:normal;letter-spacing:normal;word-spacing:normal;text-transform:none;direction:ltr;block-progression:tb;writing-mode:lr-tb;text-anchor:start;baseline-shift:baseline;color:#000000;fill:#37484a;fill-opacity:1;stroke:none;stroke-width:21.5999794;marker:none;visibility:visible;display:inline;overflow:visible;enable-background:accumulate;font-family:Sans;-inkscape-font-specification:Sans"/><path d="m 1728.9255,13393.036 c 14.1762,24.447 45.8343,32.866 70.2815,18.69 24.4471,-14.177 32.8658,-45.835 18.6895,-70.282 -14.1762,-24.447 -45.8344,-32.866 -70.2815,-18.689 -24.4471,14.176 -32.8658,45.834 -18.6895,70.281 z m 20.7559,-12.036 c -7.6698,-13.226 -3.2397,-29.79 9.9868,-37.459 13.2266,-7.67 29.8026,-3.288 37.4724,9.939 7.6698,13.227 3.2572,29.82 -9.9694,37.49 -13.2266,7.67 -29.82,3.257 -37.4898,-9.97 z" id="path15849" style="font-size:medium;font-style:normal;font-variant:normal;font-weight:normal;font-stretch:normal;text-indent:0;text-align:start;text-decoration:none;line-height:normal;letter-spacing:normal;word-spacing:normal;text-transform:none;direction:ltr;block-progression:tb;writing-mode:lr-tb;text-anchor:start;baseline-shift:baseline;color:#000000;fill:#37484a;fill-opacity:1;stroke:none;stroke-width:21.5999794;marker:none;visibility:visible;display:inline;overflow:visible;enable-background:accumulate;font-family:Sans;-inkscape-font-specification:Sans"/><path d="m 1869.3036,13312.936 c 14.1762,24.447 45.8343,32.866 70.2815,18.69 24.4471,-14.177 32.8658,-45.835 18.6895,-70.282 -14.1762,-24.447 -45.8344,-32.866 -70.2815,-18.689 -24.4471,14.176 -32.8658,45.834 -18.6895,70.281 z m 20.7559,-12.036 c -7.6698,-13.226 -3.2397,-29.79 9.9868,-37.459 13.2266,-7.67 29.8026,-3.288 37.4724,9.939 7.6698,13.227 3.2572,29.82 -9.9694,37.49 -13.2266,7.67 -29.82,3.257 -37.4898,-9.97 z" id="path15851" style="font-size:medium;font-style:normal;font-variant:normal;font-weight:normal;font-stretch:normal;text-indent:0;text-align:start;text-decoration:none;line-height:normal;letter-spacing:normal;word-spacing:normal;text-transform:none;direction:ltr;block-progression:tb;writing-mode:lr-tb;text-anchor:start;baseline-shift:baseline;color:#000000;fill:#37484a;fill-opacity:1;stroke:none;stroke-width:21.5999794;marker:none;visibility:visible;display:inline;overflow:visible;enable-background:accumulate;font-family:Sans;-inkscape-font-specification:Sans"/><path d="m 1877.375,13740.875 -85.5938,51.375 c 5.5091,5.606 9,13.596 9.1563,22.5 l 88.125,-52.906 c -6.1628,-4.827 -10.5208,-12.325 -11.6875,-20.969 z m -271.1875,23.687 -81.625,15.626 c 1.7871,4.114 2.7813,8.721 2.7813,13.593 0,3.719 -0.5857,7.284 -1.6563,10.594 l 81.5625,-15.594 c -1.7696,-4.098 -2.75,-8.684 -2.75,-13.531 0,-3.755 0.5968,-7.352 1.6875,-10.688 z m 54.2813,4.188 c 0.3993,2.099 0.5937,4.269 0.5937,6.5 0,6.445 -1.7764,12.422 -4.7813,17.406 l 88.7813,29.688 c -0.459,-2.243 -0.6875,-4.572 -0.6875,-6.969 0,-6.278 1.668,-12.126 4.5312,-17.031 l -88.4374,-29.594 z" id="path15853" style="font-size:medium;font-style:normal;font-variant:normal;font-weight:normal;font-stretch:normal;text-indent:0;text-align:start;text-decoration:none;line-height:normal;letter-spacing:normal;word-spacing:normal;text-transform:none;direction:ltr;block-progression:tb;writing-mode:lr-tb;text-anchor:start;baseline-shift:baseline;color:#000000;fill:#37484a;fill-opacity:1;stroke:none;stroke-width:24;marker:none;visibility:visible;display:inline;overflow:visible;enable-background:accumulate;font-family:Sans;-inkscape-font-specification:Sans" transform="translate(0,-448)"/></g><path d="m 1974.5793,13256.432 c -6.9346,0.193 -13.9219,2.092 -20.3452,5.817 -16.8452,9.768 -24.5726,29.195 -20.2576,47.208 l -58.4634,35.108 c -13.414,-13.967 -35.0889,-17.542 -52.5878,-7.395 -7.0253,4.073 -12.4624,9.823 -16.1066,16.457 l -50.6001,-16.925 c -0.039,-7.252 -1.89,-14.588 -5.7879,-21.31 -11.919,-20.555 -38.2596,-27.559 -58.8142,-15.639 -11.6724,6.768 -18.982,18.182 -20.9299,30.547 l -49.8692,9.529 c -0.5209,-1.103 -1.0717,-2.198 -1.6955,-3.274 -11.919,-20.554 -38.2595,-27.558 -58.8141,-15.639 -20.5546,11.921 -27.5582,38.26 -15.639,58.815 11.919,20.553 38.2595,27.558 58.8142,15.639 12.5751,-7.292 20.0513,-19.985 21.2514,-33.441 l 48.4077,-9.267 c 0.7865,2 1.7245,3.989 2.8355,5.905 11.919,20.555 38.2595,27.558 58.8142,15.639 6.7667,-3.924 12.06,-9.43 15.6974,-15.755 l 51.0092,17.041 c 0.1754,6.974 2.0421,14.003 5.788,20.462 11.9189,20.555 38.2595,27.558 58.8142,15.639 16.875,-9.785 24.5939,-29.285 20.2283,-47.326 l 58.4048,-35.078 c 13.4073,14.042 35.1393,17.652 52.6756,7.483 20.5545,-11.919 27.558,-38.259 15.6389,-58.814 -8.1943,-14.131 -23.2127,-21.851 -38.4689,-21.426 z" id="path15867" style="fill:#37484a;fill-opacity:1;fill-rule:nonzero;stroke:none"/></g></svg>