<?xml version="1.0" ?><!DOCTYPE svg  PUBLIC '-//W3C//DTD SVG 1.1//EN'  'http://www.w3.org/Graphics/SVG/1.1/DTD/svg11.dtd'><svg enable-background="new 0 0 128 128" height="128px" id="Layer_1" version="1.1" viewBox="0 0 128 128" width="128px" xml:space="preserve" xmlns="http://www.w3.org/2000/svg" xmlns:xlink="http://www.w3.org/1999/xlink"><path d="M58,124c0,2.2-1.8,4-4,4H4c-2.2,0-4-1.8-4-4V74.001c0-2.2,1.8-4,4-4h50c2.2,0,4,1.8,4,4V124z"/><path d="M128,124c0,2.2-1.8,4-4,4H74c-2.2,0-4-1.8-4-4V74.001c0-2.2,1.8-4,4-4h50c2.2,0,4,1.8,4,4V124z"/><path d="M128,53.999c0,2.2-1.8,4-4,4H74c-2.2,0-4-1.8-4-4V4c0-2.2,1.8-4,4-4h50c2.2,0,4,1.8,4,4V53.999z"/><g><path d="M25.592,3.852C11.312,4.733,0,16.59,0,31.092c0,15.076,12.222,27.299,27.299,27.299c4.844,0,9.391-1.267,13.335-3.48   L25.592,31.595V3.852z"/><path d="M58,30.597c0-5.449-1.481-10.552-4.055-14.936L31.738,32.289l14.25,22.09C53.273,48.998,58,40.35,58,30.597z"/><path d="M51.425,12.486C46.374,5.922,38.63,1.542,29.843,1v27.645L51.425,12.486z"/></g></svg>