<?xml version="1.0" ?><!DOCTYPE svg  PUBLIC '-//W3C//DTD SVG 1.1//EN'  'http://www.w3.org/Graphics/SVG/1.1/DTD/svg11.dtd'><svg enable-background="new 0 0 100 100" height="100px" id="Layer_1" version="1.1" viewBox="0 0 100 100" width="100px" xml:space="preserve" xmlns="http://www.w3.org/2000/svg" xmlns:xlink="http://www.w3.org/1999/xlink"><g><path d="M50,21.103c-2.583,0-4.723,1.999-5.1,4.607c-0.039,0.268-0.058,0.544-0.058,0.823c0,0.114,0.004,0.227,0.01,0.338   c0.009,0.164,0.025,0.326,0.048,0.485c0.004,0.049,0.008,0.097,0.013,0.146c0.325,3.681,2.479,6.524,5.087,6.524   c2.609,0,4.762-2.843,5.087-6.524c0.005-0.048,0.009-0.097,0.013-0.146c0.023-0.16,0.039-0.321,0.048-0.485   c0.006-0.112,0.011-0.225,0.011-0.338c0-0.279-0.02-0.555-0.059-0.823C54.724,23.102,52.584,21.103,50,21.103z"/><path d="M16.292,43.032c-2.009,0-3.673,1.554-3.967,3.583c-0.03,0.208-0.045,0.423-0.045,0.64c0,0.089,0.003,0.176,0.008,0.263   c0.007,0.128,0.019,0.253,0.037,0.378c0.003,0.038,0.006,0.076,0.01,0.113c0.252,2.863,1.928,5.074,3.957,5.074   s3.704-2.211,3.957-5.074c0.004-0.038,0.007-0.075,0.01-0.113c0.018-0.125,0.03-0.25,0.038-0.378   c0.004-0.087,0.008-0.174,0.008-0.263c0-0.217-0.015-0.432-0.046-0.64C19.965,44.586,18.301,43.032,16.292,43.032z"/><path d="M45.948,65.969c-0.03,0.208-0.045,0.423-0.045,0.64c0,0.089,0.003,0.177,0.008,0.264c0.007,0.128,0.019,0.253,0.037,0.378   c0.003,0.038,0.006,0.076,0.01,0.113c0.252,2.862,1.928,5.074,3.956,5.074c2.029,0,3.704-2.212,3.957-5.074   c0.004-0.037,0.007-0.075,0.01-0.113c0.019-0.125,0.03-0.25,0.037-0.378c0.005-0.087,0.009-0.175,0.009-0.264   c0-0.217-0.016-0.432-0.046-0.64c-0.293-2.028-1.958-3.583-3.967-3.583C47.906,62.386,46.241,63.94,45.948,65.969z"/><path d="M83.708,43.032c-2.009,0-3.674,1.554-3.967,3.583c-0.03,0.208-0.045,0.423-0.045,0.64c0,0.089,0.003,0.176,0.008,0.263   c0.007,0.128,0.02,0.253,0.037,0.378c0.003,0.038,0.006,0.076,0.01,0.113c0.253,2.863,1.928,5.074,3.957,5.074   c2.028,0,3.703-2.211,3.956-5.074c0.004-0.038,0.007-0.075,0.01-0.113c0.019-0.125,0.03-0.25,0.038-0.378   c0.005-0.087,0.008-0.174,0.008-0.263c0-0.217-0.015-0.432-0.046-0.64C87.381,44.586,85.717,43.032,83.708,43.032z"/><path d="M83.708,40.375c-3.614,0-6.834,1.708-8.902,4.356l-11.646-6.399c0.002-0.003,0.003-0.006,0.004-0.009   c0.104-0.222,0.201-0.446,0.294-0.674c0.01-0.024,0.019-0.049,0.028-0.073c0.082-0.207,0.16-0.415,0.233-0.625   c0.015-0.042,0.028-0.083,0.043-0.125c0.065-0.194,0.126-0.39,0.184-0.587c0.016-0.056,0.032-0.111,0.048-0.167   c0.051-0.185,0.098-0.371,0.142-0.558c0.016-0.068,0.032-0.135,0.047-0.203c0.039-0.178,0.073-0.357,0.105-0.537   c0.014-0.077,0.029-0.153,0.041-0.229c0.029-0.175,0.053-0.352,0.074-0.528c0.011-0.082,0.022-0.164,0.031-0.246   c0.02-0.182,0.033-0.366,0.046-0.55c0.006-0.076,0.014-0.152,0.018-0.229c0.014-0.26,0.022-0.521,0.022-0.784l0,0   c0-2.188-0.49-4.264-1.36-6.126c-0.274-0.587-0.588-1.152-0.936-1.694c-2.42-3.769-6.531-6.349-11.255-6.662   c-0.32-0.021-0.643-0.036-0.968-0.036s-0.647,0.015-0.968,0.036c-4.724,0.313-8.835,2.894-11.255,6.662   c-0.348,0.542-0.661,1.107-0.936,1.694c-0.871,1.863-1.36,3.938-1.36,6.126l0,0c0,0.263,0.008,0.524,0.022,0.784   c0.004,0.077,0.012,0.152,0.017,0.229c0.013,0.185,0.027,0.369,0.046,0.551c0.009,0.082,0.021,0.163,0.031,0.244   c0.022,0.177,0.045,0.354,0.074,0.529c0.012,0.077,0.027,0.153,0.041,0.23c0.032,0.18,0.067,0.359,0.105,0.537   c0.015,0.068,0.031,0.136,0.047,0.204c0.044,0.187,0.091,0.373,0.142,0.557c0.016,0.057,0.032,0.113,0.048,0.169   c0.057,0.197,0.119,0.392,0.184,0.585c0.014,0.042,0.028,0.084,0.043,0.126c0.072,0.209,0.15,0.417,0.232,0.621   c0.01,0.027,0.021,0.053,0.031,0.079c0.091,0.224,0.187,0.445,0.289,0.664c0.002,0.005,0.004,0.011,0.007,0.017l-11.647,6.4   c-2.068-2.649-5.289-4.357-8.902-4.357C10.065,40.375,5,45.441,5,51.667c0,6.227,5.065,11.293,11.292,11.293   c6.227,0,11.292-5.066,11.292-11.293c0-1.918-0.482-3.726-1.33-5.309l11.523-6.332c0.002,0.003,0.004,0.006,0.006,0.009   c0.751,1.168,1.664,2.221,2.708,3.128c0.011,0.01,0.022,0.019,0.033,0.029c0.837,0.723,1.757,1.352,2.745,1.872   c0.004,0.002,0.008,0.004,0.013,0.006c0.237,0.125,0.479,0.242,0.723,0.354c0.018,0.008,0.036,0.016,0.055,0.024   c0.246,0.111,0.495,0.215,0.747,0.312c0.004,0.002,0.008,0.003,0.012,0.005c0.792,0.304,1.616,0.539,2.467,0.701   c0.004,0.001,0.009,0.001,0.014,0.002c0.271,0.051,0.546,0.094,0.822,0.13c0.021,0.003,0.041,0.005,0.062,0.008   c0.276,0.035,0.555,0.062,0.835,0.081c0.004,0,0.008,0.001,0.012,0.001v13.078c-5.816,0.451-10.411,5.325-10.411,11.255   c0,6.227,5.065,11.292,11.292,11.292c6.228,0,11.293-5.065,11.293-11.292c0-5.871-4.505-10.709-10.238-11.242v-13.09   c0.004,0,0.008-0.001,0.012-0.001c0.281-0.019,0.559-0.046,0.835-0.081c0.021-0.002,0.041-0.005,0.061-0.008   c0.277-0.036,0.553-0.079,0.824-0.13c0.004-0.001,0.008-0.001,0.013-0.002c0.851-0.162,1.677-0.397,2.469-0.701   c0.002-0.001,0.005-0.002,0.007-0.003c0.255-0.098,0.506-0.203,0.754-0.315c0.016-0.007,0.032-0.014,0.048-0.022   c0.248-0.113,0.492-0.231,0.732-0.357c0.001,0,0.003-0.001,0.004-0.002c0.991-0.521,1.914-1.152,2.754-1.878   c0.007-0.006,0.015-0.012,0.021-0.019c1.048-0.909,1.965-1.966,2.718-3.138c0.001-0.001,0.002-0.003,0.003-0.004l11.521,6.331   c-0.848,1.584-1.33,3.392-1.33,5.31c0,6.227,5.065,11.293,11.293,11.293C89.935,62.96,95,57.894,95,51.667   C95,45.441,89.935,40.375,83.708,40.375z M26.256,51.667c0,2.207-0.719,4.245-1.933,5.896c-0.123-2.563-2.059-4.652-4.558-5   c-0.009-0.001-0.019-0.001-0.027-0.003c-0.074-0.011-0.148-0.019-0.223-0.025c0,0.008-0.002,0.015-0.002,0.022   c-0.001,0.022-0.005,0.043-0.008,0.065c-0.014,0.124-0.051,0.244-0.109,0.361c-0.39,0.981-1.652,2.843-2.395,3.899l-0.153-2.195   c0.217-0.111,0.403-0.296,0.523-0.51c0.086-0.153,0.139-0.321,0.139-0.492c0,0-0.554,0.246-1.12,0.246   c-0.032,0-0.064-0.001-0.097-0.003c-0.032,0.002-0.065,0.003-0.097,0.003c-0.566,0-1.12-0.246-1.12-0.246   c0,0.171,0.052,0.339,0.139,0.492c0.119,0.214,0.306,0.398,0.523,0.51l-0.153,2.195c-0.744-1.057-2.005-2.918-2.396-3.899   c-0.058-0.117-0.095-0.237-0.109-0.361c-0.003-0.022-0.006-0.043-0.007-0.065c0-0.008-0.003-0.015-0.003-0.022   c-0.074,0.007-0.148,0.015-0.223,0.025c-0.009,0.002-0.019,0.002-0.027,0.003c-2.499,0.348-4.435,2.437-4.558,5   c-1.214-1.651-1.933-3.689-1.933-5.896c0-5.502,4.461-9.963,9.964-9.963C21.795,41.704,26.256,46.165,26.256,51.667z    M59.878,71.021c0,2.206-0.719,4.244-1.933,5.896c-0.123-2.563-2.059-4.652-4.558-5c-0.009-0.001-0.019-0.002-0.027-0.004   c-0.074-0.009-0.148-0.018-0.224-0.025c0,0.008-0.003,0.016-0.003,0.023c-0.001,0.021-0.005,0.043-0.008,0.065   c-0.013,0.124-0.05,0.245-0.108,0.361c-0.39,0.981-1.652,2.842-2.395,3.898l-0.154-2.194c0.217-0.111,0.404-0.296,0.523-0.51   c0.086-0.153,0.139-0.32,0.139-0.492c0,0-0.555,0.246-1.121,0.246c-0.032,0-0.064-0.001-0.097-0.003   c-0.032,0.002-0.064,0.003-0.097,0.003c-0.566,0-1.12-0.246-1.12-0.246c0,0.172,0.053,0.339,0.139,0.492   c0.119,0.214,0.306,0.398,0.523,0.51l-0.153,2.194c-0.744-1.057-2.006-2.917-2.396-3.898c-0.058-0.116-0.095-0.237-0.109-0.361   c-0.003-0.022-0.007-0.044-0.008-0.065c0-0.008-0.002-0.016-0.003-0.023c-0.074,0.008-0.149,0.017-0.223,0.025   c-0.009,0.002-0.02,0.003-0.027,0.004c-2.499,0.348-4.435,2.437-4.558,5c-1.214-1.651-1.933-3.689-1.933-5.896   c0-5.504,4.461-9.965,9.964-9.965S59.878,65.518,59.878,71.021z M60.326,39.787c-0.158-3.296-2.647-5.982-5.86-6.429   c-0.011-0.001-0.023-0.002-0.035-0.004c-0.096-0.013-0.19-0.023-0.287-0.032c0,0.009-0.003,0.02-0.003,0.029   c-0.002,0.029-0.007,0.056-0.011,0.084c-0.017,0.16-0.064,0.315-0.14,0.464c-0.501,1.262-2.124,3.655-3.079,5.013l-0.197-2.822   c0.279-0.143,0.519-0.38,0.672-0.655c0.111-0.197,0.179-0.413,0.179-0.633c0,0-0.713,0.316-1.44,0.316   c-0.041,0-0.083-0.001-0.125-0.003c-0.041,0.002-0.083,0.003-0.125,0.003c-0.728,0-1.44-0.316-1.44-0.316   c0,0.22,0.068,0.436,0.179,0.633c0.153,0.275,0.394,0.512,0.672,0.655l-0.197,2.822c-0.956-1.358-2.578-3.751-3.08-5.013   c-0.075-0.149-0.123-0.305-0.14-0.464c-0.003-0.029-0.008-0.056-0.01-0.084c0-0.009-0.003-0.02-0.004-0.029   c-0.096,0.009-0.191,0.02-0.286,0.032c-0.012,0.002-0.025,0.003-0.036,0.004c-3.212,0.447-5.702,3.133-5.86,6.429   c-1.561-2.123-2.485-4.744-2.485-7.581c0-7.075,5.735-12.811,12.811-12.811c7.076,0,12.811,5.736,12.811,12.811   C62.812,35.043,61.887,37.664,60.326,39.787z M87.181,52.563c-0.009-0.001-0.019-0.001-0.027-0.003   c-0.074-0.011-0.148-0.019-0.223-0.025c-0.001,0.008-0.003,0.015-0.003,0.022c-0.001,0.022-0.005,0.043-0.008,0.065   c-0.014,0.124-0.051,0.244-0.109,0.361c-0.39,0.981-1.652,2.843-2.395,3.899l-0.153-2.195c0.217-0.111,0.403-0.296,0.523-0.51   c0.086-0.153,0.139-0.321,0.139-0.492c0,0-0.555,0.246-1.12,0.246c-0.032,0-0.064-0.001-0.097-0.003   c-0.032,0.002-0.064,0.003-0.097,0.003c-0.566,0-1.12-0.246-1.12-0.246c0,0.171,0.053,0.339,0.139,0.492   c0.119,0.214,0.307,0.398,0.523,0.51L83,56.884c-0.743-1.057-2.006-2.918-2.396-3.899c-0.059-0.117-0.096-0.237-0.109-0.361   c-0.003-0.022-0.006-0.043-0.007-0.065c0-0.008-0.003-0.015-0.004-0.022c-0.074,0.007-0.148,0.015-0.223,0.025   c-0.009,0.002-0.019,0.002-0.027,0.003c-2.498,0.348-4.435,2.437-4.558,5c-1.214-1.651-1.933-3.689-1.933-5.896   c0-5.502,4.461-9.963,9.964-9.963s9.964,4.461,9.964,9.963c0,2.207-0.719,4.245-1.934,5.896C91.615,55,89.68,52.911,87.181,52.563z   "/></g></svg>