<?xml version="1.0" ?><!DOCTYPE svg  PUBLIC '-//W3C//DTD SVG 1.1//EN'  'http://www.w3.org/Graphics/SVG/1.1/DTD/svg11.dtd'><svg height="512px" style="shape-rendering:geometricPrecision; text-rendering:geometricPrecision; image-rendering:optimizeQuality; fill-rule:evenodd; clip-rule:evenodd" version="1.1" viewBox="0 0 512 512" width="512px" xml:space="preserve" xmlns="http://www.w3.org/2000/svg" xmlns:xlink="http://www.w3.org/1999/xlink"><defs><style type="text/css">
   <![CDATA[
    .fil0 {fill:#2B2A29}
   ]]>
  </style></defs><g id="Layer_x0020_1"><path class="fil0" d="M258 13c134,0 243,109 243,243 0,134 -109,243 -243,243 -134,0 -243,-109 -243,-243 0,-134 109,-243 243,-243zm0 98l37 107 111 0 -90 67 35 105 -92 -65 0 0 0 0 -92 65 35 -105 -90 -67 111 0 37 -107 0 0 0 0zm0 -61c114,0 206,92 206,206 0,114 -92,206 -206,206 -114,0 -206,-92 -206,-206 0,-114 92,-206 206,-206z"/></g></svg>