<?xml version="1.0" ?><svg enable-background="new 0 0 515.91 728.5" height="512" id="Layer_1" version="1.1" viewBox="0 0 512.00003 512" width="512" xml:space="preserve" xmlns="http://www.w3.org/2000/svg" xmlns:cc="http://creativecommons.org/ns#" xmlns:dc="http://purl.org/dc/elements/1.1/" xmlns:inkscape="http://www.inkscape.org/namespaces/inkscape" xmlns:rdf="http://www.w3.org/1999/02/22-rdf-syntax-ns#" xmlns:sodipodi="http://sodipodi.sourceforge.net/DTD/sodipodi-0.dtd" xmlns:svg="http://www.w3.org/2000/svg"><defs id="defs7"/><g id="g3813" transform="translate(-0.00365645,8.8230361)"><path d="m 435.89764,211.07479 c -6.55512,18.14174 -16.12205,35.18504 -28.41733,50.06693 -20.94094,26.92913 -50.52755,45.85039 -83.01968,55.59449 0.28346,12.82677 -0.77953,25.72441 -3.25984,38.30315 -7.15748,40.03936 -29.72835,76.25196 -61.08662,101.55117 26.71654,23.49213 61.75985,37.73622 100.13386,37.73622 83.79921,0 151.75984,-67.88976 151.75984,-151.7244 0,-56.23228 -30.6496,-105.34252 -76.11023,-131.52756 z" id="path3815" style="fill:#7cbb00;fill-opacity:1;fill-rule:nonzero;stroke:none"/><path d="M 197.92913,20.374015 C 270.49606,-21.507873 363.29528,3.3307085 405.17716,75.933068 447.09449,148.49999 422.22047,241.2992 349.65354,283.18109 277.08661,325.09841 184.2874,300.2244 142.37008,227.65747 100.48819,155.09054 125.3622,62.291336 197.92913,20.374015 z" id="path3817" style="fill:#f65314;fill-opacity:1;fill-rule:nonzero;stroke:none"/><path d="M 103.14567,178.33464 C 69.413386,189.74409 39.543307,212.95275 20.338583,246.18897 -21.543307,318.75589 3.3307087,411.5551 75.897638,453.47242 148.5,495.35431 241.29921,470.51573 283.1811,397.9488 c 13.88977,-24.05905 20.40945,-50.31496 20.33858,-76.21653 -27.70866,4.78346 -56.58661,3.11811 -83.33858,-5.74016 C 158.77559,297.53148 113.35039,241.01574 103.14567,178.33464 z" id="path3819" style="fill:#00a1f1;fill-opacity:1;fill-rule:nonzero;stroke:none"/></g></svg>