<?xml version="1.0" encoding="utf-8"?>
<!-- Generator: Adobe Illustrator 23.0.1, SVG Export Plug-In . SVG Version: 6.00 Build 0)  -->
<svg version="1.1" id="Layer_1" xmlns="http://www.w3.org/2000/svg" xmlns:xlink="http://www.w3.org/1999/xlink" x="0px" y="0px"
	 viewBox="0 0 100 100" style="enable-background:new 0 0 100 100;" xml:space="preserve">
<path d="M94.19,91.37L68.03,65.2l19.09-19.09c0.78-0.78,0.78-2.05,0-2.83c-8.13-8.13-20.5-9.93-30.54-4.6l-18.9-15.75
	c2.3-5.88,0.95-12.59-3.59-17.12c-0.78-0.78-2.05-0.78-2.83,0L5.81,31.26c-0.78,0.78-0.78,2.05,0,2.83
	c4.54,4.54,11.25,5.89,17.12,3.59l15.75,18.9c-5.33,10.04-3.53,22.41,4.6,30.54c0.39,0.39,0.9,0.59,1.41,0.59s1.02-0.2,1.41-0.59
	L65.2,68.03l26.16,26.16c0.39,0.39,0.9,0.59,1.41,0.59s1.02-0.2,1.41-0.59C94.98,93.41,94.98,92.15,94.19,91.37z M44.76,82.82
	c-5.97-7.15-6.82-17.33-1.95-25.42c0.44-0.73,0.37-1.66-0.18-2.31L25.03,33.96c-0.39-0.47-0.96-0.72-1.54-0.72
	c-0.31,0-0.62,0.07-0.91,0.22c-4.05,2.07-8.82,1.67-12.42-0.9l22.39-22.39c2.57,3.6,2.97,8.37,0.9,12.42
	c-0.43,0.83-0.22,1.85,0.5,2.45l21.13,17.61c0.65,0.55,1.58,0.62,2.31,0.18c8.09-4.88,18.27-4.02,25.42,1.95L44.76,82.82z"/>
</svg>
