<?xml version="1.0" ?><svg id="Layer_1" style="enable-background:new 0 0 100 100;" version="1.1" viewBox="0 0 100 100" xml:space="preserve" xmlns="http://www.w3.org/2000/svg" xmlns:xlink="http://www.w3.org/1999/xlink"><g><path d="M79.6,5H23.7l-19,22.6c0.6,6.3,5.8,11.3,12.3,11.3c4.8,0,8.9-2.7,11-6.7c2.1,4,6.2,6.7,11,6.7s8.9-2.7,11-6.7   c2.1,4,6.2,6.7,11,6.7s8.9-2.7,11-6.7c2.1,4,6.2,6.7,11,6.7c6.5,0,11.7-5,12.3-11.3L79.6,5z"/><path d="M70.6,38.8c-2.7,3.3-6.7,5.2-11,5.2s-8.3-1.9-11-5.2c-2.7,3.3-6.7,5.2-11,5.2s-8.3-1.9-11-5.2c-2.7,3.3-6.7,5.2-11,5.2   c-1.3,0-2.6-0.2-3.8-0.6v47.8c0,2.1,1.7,3.8,3.8,3.8h67.6c2.1,0,3.8-1.7,3.8-3.8V42.8c-1.7,0.8-3.6,1.2-5.7,1.2   C77.2,44,73.2,42.1,70.6,38.8z M68.5,63.4h-6.4v20.4H37V63.4h-6.4v-9.5H37h3.7h2.1c0,0.1,0,0.2,0,0.3c0,3.8,3.1,6.8,6.8,6.8   c3.8,0,6.8-3.1,6.8-6.8c0-0.1,0-0.2,0-0.3h2.1h3.7h6.4L68.5,63.4L68.5,63.4z"/></g></svg>