<?xml version="1.0" ?><svg id="katman_1" style="enable-background:new 0 0 1000 1000;" version="1.1" viewBox="0 0 1000 1000" xml:space="preserve" xmlns="http://www.w3.org/2000/svg" xmlns:xlink="http://www.w3.org/1999/xlink"><style type="text/css">
	.st0{display:none;fill:#000;}
	.st1{fill:#A86E4D;}
</style><circle class="st0" cx="500" cy="500" r="380"/><g><path class="st1" d="M549.9,476.2l391.8,92.9C973.6,410,911.9,247,784.4,148.7L549.9,476.2L549.9,476.2z"/><path class="st1" d="M334.9,871.3c204.7,54.8,415.9-67.1,470.8-271.8c0,0,0,0,0,0l-357.6-84.8l225.7-315.3   c-40.1-32-87.3-56.5-140-70.6C329.2,73.9,118,195.9,63.1,400.5C8.3,605.2,130.3,816.4,334.9,871.3z M693.3,731.5   c-23,25.4-47.5,46.3-77.5,64.7C564.2,828,506.5,844.9,446.8,847c0-106.9,0-213.8,0-320.6C528.8,594.3,612.8,663.5,693.3,731.5z    M87.4,487.7c9-256.8,277.7-406.3,497.5-300.7c0.7,0.3,1.4,0.7,2.1,1l0.1,0c13.5,6.6,26.7,14.1,39.3,22.5L428.2,487.3   c-5.8,8.5-6.2,11.1-6.2,24.6V847C236.3,840.2,87.2,688.2,87.2,500C87.2,495.9,87.3,491.8,87.4,487.7z"/><g><polygon class="st1" points="468.4,589 478.5,584.3 494.3,597.4 468.4,609.5 468.4,589   "/><polygon class="st1" points="468.4,647.6 523.6,621.9 539.4,635 468.4,668.1 468.4,647.6   "/><polygon class="st1" points="468.4,706.3 568.8,659.5 584.6,672.6 468.4,726.8 468.4,706.3   "/><polygon class="st1" points="468.4,764.9 613.9,697.1 629.7,710.2 468.4,785.4 468.4,764.9   "/><path class="st1" d="M490.2,813.4l145.6-67.9C594.6,779.4,544.8,803.3,490.2,813.4L490.2,813.4z"/></g></g></svg>